<svg version="1.1" viewBox="0.0 0.0 960.0 720.0" fill="none" stroke="none" stroke-linecap="square" stroke-miterlimit="10" xmlns:xlink="http://www.w3.org/1999/xlink" xmlns="http://www.w3.org/2000/svg"><clipPath id="p.0"><path d="m0 0l960.0 0l0 720.0l-960.0 0l0 -720.0z" clip-rule="nonzero"/></clipPath><g clip-path="url(#p.0)"><path fill="#000000" fill-opacity="0.0" d="m0 0l960.0 0l0 720.0l-960.0 0z" fill-rule="evenodd"/><path fill="#ffffff" d="m527.96094 148.31758l0 0c0 -19.673508 29.79596 -35.62204 66.55115 -35.62204l0 0c36.75525 0 66.55121 15.948532 66.55121 35.62204l0 0c0 19.673523 -29.79596 35.622055 -66.55121 35.622055l0 0c-36.755188 0 -66.55115 -15.948532 -66.55115 -35.622055z" fill-rule="evenodd"/><path stroke="#000000" stroke-width="1.0" stroke-linejoin="round" stroke-linecap="butt" d="m527.96094 148.31758l0 0c0 -19.673508 29.79596 -35.62204 66.55115 -35.62204l0 0c36.75525 0 66.55121 15.948532 66.55121 35.62204l0 0c0 19.673523 -29.79596 35.622055 -66.55121 35.622055l0 0c-36.755188 0 -66.55115 -15.948532 -66.55115 -35.622055z" fill-rule="evenodd"/><path fill="#000000" d="m561.87103 144.23758l0 -9.671875l1.46875 0l0 1.46875q0.5625 -1.03125 1.03125 -1.359375q0.484375 -0.328125 1.0625 -0.328125q0.828125 0 1.6875 0.53125l-0.5625 1.515625q-0.609375 -0.359375 -1.203125 -0.359375q-0.546875 0 -0.96875 0.328125q-0.421875 0.328125 -0.609375 0.890625q-0.28125 0.875 -0.28125 1.921875l0 5.0625l-1.625 0z" fill-rule="nonzero"/><path fill="#000000" d="m571.5056 151.23758l-1.09375 0l0 -6.96875q-0.40625 0.375 -1.046875 0.75q-0.640625 0.375 -1.140625 0.578125l0 -1.0625q0.90625 -0.4375 1.59375 -1.046875q0.6875 -0.609375 0.96875 -1.1875l0.71875 0l0 8.9375z" fill-rule="nonzero"/><path fill="#000000" d="m575.4383 144.23758l0 -1.875l1.875 0l0 1.875q0 1.03125 -0.375 1.65625q-0.359375 0.640625 -1.15625 0.984375l-0.453125 -0.703125q0.515625 -0.21875 0.765625 -0.671875q0.25 -0.4375 0.28125 -1.265625l-0.9375 0zm5.2145386 0l0 -1.875l1.875 0l0 1.875l-1.875 0zm5.1832886 0l0 -1.875l1.875 0l0 1.875l-1.875 0zm5.1832886 0l0 -1.875l1.875 0l0 1.875l-1.875 0zm5.1520996 0l0 -1.875l1.875 0l0 1.875q0 1.03125 -0.375 1.65625q-0.359375 0.640625 -1.15625 0.984375l-0.453125 -0.703125q0.515625 -0.21875 0.765625 -0.671875q0.25 -0.4375 0.28125 -1.265625l-0.9375 0zm4.7457886 0l0 -9.671875l1.46875 0l0 1.46875q0.5625 -1.03125 1.03125 -1.359375q0.484375 -0.328125 1.0625 -0.328125q0.828125 0 1.6875 0.53125l-0.5625 1.515625q-0.609375 -0.359375 -1.203125 -0.359375q-0.546875 0 -0.96875 0.328125q-0.421875 0.328125 -0.609375 0.890625q-0.28125 0.875 -0.28125 1.921875l0 5.0625l-1.625 0z" fill-rule="nonzero"/><path fill="#000000" d="m606.2862 149.3157l1.09375 -0.171875q0.09375 0.640625 0.5 1.0q0.421875 0.34375 1.171875 0.34375q0.75 0 1.109375 -0.296875q0.359375 -0.3125 0.359375 -0.734375q0 -0.375 -0.3125 -0.578125q-0.234375 -0.15625 -1.125 -0.375q-1.203125 -0.296875 -1.671875 -0.515625q-0.453125 -0.234375 -0.703125 -0.625q-0.234375 -0.390625 -0.234375 -0.859375q0 -0.4375 0.1875 -0.796875q0.203125 -0.375 0.546875 -0.609375q0.265625 -0.1875 0.703125 -0.3125q0.4375 -0.140625 0.9375 -0.140625q0.765625 0 1.328125 0.21875q0.578125 0.21875 0.84375 0.59375q0.28125 0.375 0.390625 1.0l-1.078125 0.140625q-0.0625 -0.5 -0.421875 -0.78125q-0.34375 -0.28125 -0.984375 -0.28125q-0.75 0 -1.078125 0.25q-0.3125 0.25 -0.3125 0.59375q0 0.203125 0.125 0.375q0.140625 0.171875 0.421875 0.296875q0.171875 0.0625 0.96875 0.28125q1.15625 0.3125 1.609375 0.515625q0.46875 0.1875 0.71875 0.5625q0.265625 0.375 0.265625 0.9375q0 0.546875 -0.328125 1.03125q-0.3125 0.484375 -0.90625 0.75q-0.59375 0.25 -1.359375 0.25q-1.265625 0 -1.921875 -0.515625q-0.65625 -0.53125 -0.84375 -1.546875zm6.234314 -0.75l0 -1.09375l3.359375 0l0 1.09375l-3.359375 0zm8.391724 2.671875l-1.09375 0l0 -6.96875q-0.40625 0.375 -1.046875 0.75q-0.640625 0.375 -1.140625 0.578125l0 -1.0625q0.90625 -0.4375 1.59375 -1.046875q0.6875 -0.609375 0.96875 -1.1875l0.71875 0l0 8.9375z" fill-rule="nonzero"/><path fill="#000000" d="m624.8449 144.23758l0 -1.875l1.875 0l0 1.875q0 1.03125 -0.375 1.65625q-0.359375 0.640625 -1.15625 0.984375l-0.453125 -0.703125q0.515625 -0.21875 0.765625 -0.671875q0.25 -0.4375 0.28125 -1.265625l-0.9375 0z" fill-rule="nonzero"/><path fill="#000000" d="m589.9887 166.23758l3.53125 -5.03125l-3.265625 -4.640625l2.046875 0l1.484375 2.265625q0.421875 0.640625 0.671875 1.078125q0.40625 -0.59375 0.734375 -1.0625l1.640625 -2.28125l1.953125 0l-3.34375 4.546875l3.59375 5.125l-2.015625 0l-1.984375 -3.0l-0.515625 -0.8125l-2.546875 3.8125l-1.984375 0z" fill-rule="nonzero"/><path fill="#ffffff" d="m459.68402 258.73083l0 0c0 -19.673508 26.869965 -35.62204 60.015747 -35.62204l0 0c33.145813 0 60.015747 15.948532 60.015747 35.62204l0 0c0 19.673523 -26.869934 35.62207 -60.015747 35.62207l0 0c-33.145782 0 -60.015747 -15.948547 -60.015747 -35.62207z" fill-rule="evenodd"/><path stroke="#000000" stroke-width="1.0" stroke-linejoin="round" stroke-linecap="butt" d="m459.68402 258.73083l0 0c0 -19.673508 26.869965 -35.62204 60.015747 -35.62204l0 0c33.145813 0 60.015747 15.948532 60.015747 35.62204l0 0c0 19.673523 -26.869934 35.62207 -60.015747 35.62207l0 0c-33.145782 0 -60.015747 -15.948547 -60.015747 -35.62207z" fill-rule="evenodd"/><path fill="#000000" d="m488.95184 265.65085l0 -9.671875l1.46875 0l0 1.46875q0.5625 -1.03125 1.03125 -1.359375q0.484375 -0.328125 1.0625 -0.328125q0.828125 0 1.6875 0.53125l-0.5625 1.515625q-0.609375 -0.359375 -1.203125 -0.359375q-0.546875 0 -0.96875 0.328125q-0.421875 0.328125 -0.609375 0.890625q-0.28125 0.875 -0.28125 1.921875l0 5.0625l-1.625 0z" fill-rule="nonzero"/><path fill="#000000" d="m498.5864 272.65085l-1.09375 0l0 -6.96875q-0.40625 0.375 -1.046875 0.75q-0.640625 0.375 -1.140625 0.578125l0 -1.0625q0.90625 -0.4375 1.59375 -1.046875q0.6875 -0.609375 0.96875 -1.1875l0.71875 0l0 8.9375z" fill-rule="nonzero"/><path fill="#000000" d="m502.51904 265.65085l0 -1.875l1.875 0l0 1.875q0 1.03125 -0.375 1.65625q-0.359375 0.640625 -1.15625 0.984375l-0.453125 -0.703125q0.515625 -0.21875 0.765625 -0.671875q0.25 -0.4375 0.28125 -1.265625l-0.9375 0zm5.214569 0l0 -1.875l1.875 0l0 1.875l-1.875 0zm5.183319 0l0 -1.875l1.875 0l0 1.875l-1.875 0zm5.1832886 0l0 -1.875l1.875 0l0 1.875l-1.875 0zm5.1520386 0l0 -1.875l1.875 0l0 1.875q0 1.03125 -0.375 1.65625q-0.359375 0.640625 -1.15625 0.984375l-0.453125 -0.703125q0.515625 -0.21875 0.765625 -0.671875q0.25 -0.4375 0.28125 -1.265625l-0.9375 0zm3.6676636 0l3.53125 -5.03125l-3.265625 -4.640625l2.046875 0l1.484375 2.265625q0.421875 0.640625 0.671875 1.078125q0.40625 -0.59375 0.734375 -1.0625l1.640625 -2.28125l1.953125 0l-3.34375 4.546875l3.59375 5.125l-2.015625 0l-1.984375 -3.0l-0.515625 -0.8125l-2.546875 3.8125l-1.984375 0zm10.84375 0l0 -1.875l1.875 0l0 1.875q0 1.03125 -0.375 1.65625q-0.359375 0.640625 -1.15625 0.984375l-0.453125 -0.703125q0.515625 -0.21875 0.765625 -0.671875q0.25 -0.4375 0.28125 -1.265625l-0.9375 0zm4.3083496 -6.59375q0 -2.359375 0.484375 -3.796875q0.484375 -1.453125 1.4375 -2.234375q0.96875 -0.78125 2.421875 -0.78125q1.078125 0 1.890625 0.4375q0.8125 0.421875 1.328125 1.25q0.53125 0.8125 0.828125 1.984375q0.3125 1.15625 0.3125 3.140625q0 2.359375 -0.484375 3.8125q-0.484375 1.4375 -1.453125 2.234375q-0.953125 0.78125 -2.421875 0.78125q-1.921875 0 -3.03125 -1.390625q-1.3125 -1.671875 -1.3125 -5.4375zm1.671875 0q0 3.296875 0.765625 4.390625q0.78125 1.078125 1.90625 1.078125q1.140625 0 1.90625 -1.09375q0.765625 -1.09375 0.765625 -4.375q0 -3.296875 -0.765625 -4.375q-0.765625 -1.078125 -1.921875 -1.078125q-1.125 0 -1.796875 0.953125q-0.859375 1.21875 -0.859375 4.5z" fill-rule="nonzero"/><path fill="#ffffff" d="m592.0946 258.73083l0 0c0 -19.673508 26.869934 -35.62204 60.015747 -35.62204l0 0c33.145752 0 60.015747 15.948532 60.015747 35.62204l0 0c0 19.673523 -26.869995 35.62207 -60.015747 35.62207l0 0c-33.145813 0 -60.015747 -15.948547 -60.015747 -35.62207z" fill-rule="evenodd"/><path stroke="#000000" stroke-width="1.0" stroke-linejoin="round" stroke-linecap="butt" d="m592.0946 258.73083l0 0c0 -19.673508 26.869934 -35.62204 60.015747 -35.62204l0 0c33.145752 0 60.015747 15.948532 60.015747 35.62204l0 0c0 19.673523 -26.869995 35.62207 -60.015747 35.62207l0 0c-33.145813 0 -60.015747 -15.948547 -60.015747 -35.62207z" fill-rule="evenodd"/><path fill="#000000" d="m621.3624 265.65085l0 -9.671875l1.46875 0l0 1.46875q0.5625 -1.03125 1.03125 -1.359375q0.484375 -0.328125 1.0625 -0.328125q0.828125 0 1.6875 0.53125l-0.5625 1.515625q-0.609375 -0.359375 -1.203125 -0.359375q-0.546875 0 -0.96875 0.328125q-0.421875 0.328125 -0.609375 0.890625q-0.28125 0.875 -0.28125 1.921875l0 5.0625l-1.625 0z" fill-rule="nonzero"/><path fill="#000000" d="m630.99695 272.65085l-1.09375 0l0 -6.96875q-0.40625 0.375 -1.046875 0.75q-0.640625 0.375 -1.140625 0.578125l0 -1.0625q0.90625 -0.4375 1.59375 -1.046875q0.6875 -0.609375 0.96875 -1.1875l0.71875 0l0 8.9375z" fill-rule="nonzero"/><path fill="#000000" d="m634.9296 265.65085l0 -1.875l1.875 0l0 1.875q0 1.03125 -0.375 1.65625q-0.359375 0.640625 -1.15625 0.984375l-0.453125 -0.703125q0.515625 -0.21875 0.765625 -0.671875q0.25 -0.4375 0.28125 -1.265625l-0.9375 0zm5.2145386 0l0 -1.875l1.875 0l0 1.875l-1.875 0zm5.1832886 0l0 -1.875l1.875 0l0 1.875l-1.875 0zm5.1833496 0l0 -1.875l1.875 0l0 1.875l-1.875 0zm5.1520386 0l0 -1.875l1.875 0l0 1.875q0 1.03125 -0.375 1.65625q-0.359375 0.640625 -1.15625 0.984375l-0.453125 -0.703125q0.515625 -0.21875 0.765625 -0.671875q0.25 -0.4375 0.28125 -1.265625l-0.9375 0zm3.6676636 0l3.53125 -5.03125l-3.265625 -4.640625l2.046875 0l1.484375 2.265625q0.421875 0.640625 0.671875 1.078125q0.40625 -0.59375 0.734375 -1.0625l1.640625 -2.28125l1.953125 0l-3.34375 4.546875l3.59375 5.125l-2.015625 0l-1.984375 -3.0l-0.515625 -0.8125l-2.546875 3.8125l-1.984375 0zm10.84375 0l0 -1.875l1.875 0l0 1.875q0 1.03125 -0.375 1.65625q-0.359375 0.640625 -1.15625 0.984375l-0.453125 -0.703125q0.515625 -0.21875 0.765625 -0.671875q0.25 -0.4375 0.28125 -1.265625l-0.9375 0zm10.480164 0l-1.640625 0l0 -10.453125q-0.59375 0.5625 -1.5625 1.140625q-0.953125 0.5625 -1.71875 0.84375l0 -1.59375q1.375 -0.640625 2.40625 -1.5625q1.03125 -0.921875 1.453125 -1.78125l1.0625 0l0 13.40625z" fill-rule="nonzero"/><path fill="#ffffff" d="m267.25876 574.80316l0 0c0 -19.673523 26.869965 -35.62207 60.015747 -35.62207l0 0c33.145782 0 60.015747 15.948547 60.015747 35.62207l0 0c0 19.673523 -26.869965 35.62201 -60.015747 35.62201l0 0c-33.145782 0 -60.015747 -15.948486 -60.015747 -35.62201z" fill-rule="evenodd"/><path stroke="#000000" stroke-width="1.0" stroke-linejoin="round" stroke-linecap="butt" d="m267.25876 574.80316l0 0c0 -19.673523 26.869965 -35.62207 60.015747 -35.62207l0 0c33.145782 0 60.015747 15.948547 60.015747 35.62207l0 0c0 19.673523 -26.869965 35.62201 -60.015747 35.62201l0 0c-33.145782 0 -60.015747 -15.948486 -60.015747 -35.62201z" fill-rule="evenodd"/><path fill="#000000" d="m296.94226 575.1294q0 -2.359375 0.484375 -3.796875q0.484375 -1.453125 1.4375 -2.234375q0.96875 -0.78125 2.421875 -0.78125q1.078125 0 1.890625 0.4375q0.8125 0.421875 1.328125 1.25q0.53125 0.8125 0.828125 1.984375q0.3125 1.15625 0.3125 3.140625q0 2.359375 -0.484375 3.8125q-0.484375 1.4375 -1.453125 2.234375q-0.953125 0.78125 -2.421875 0.78125q-1.921875 0 -3.03125 -1.390625q-1.3125 -1.671875 -1.3125 -5.4375zm1.671875 0q0 3.296875 0.765625 4.390625q0.78125 1.078125 1.90625 1.078125q1.140625 0 1.90625 -1.09375q0.765625 -1.09375 0.765625 -4.375q0 -3.296875 -0.765625 -4.375q-0.765625 -1.078125 -1.921875 -1.078125q-1.125 0 -1.796875 0.953125q-0.859375 1.21875 -0.859375 4.5zm9.578857 6.59375l0 -1.875l1.875 0l0 1.875q0 1.03125 -0.375 1.65625q-0.359375 0.640625 -1.15625 0.984375l-0.453125 -0.703125q0.515625 -0.21875 0.765625 -0.671875q0.25 -0.4375 0.28125 -1.265625l-0.9375 0zm4.3082886 -6.59375q0 -2.359375 0.484375 -3.796875q0.484375 -1.453125 1.4375 -2.234375q0.96875 -0.78125 2.421875 -0.78125q1.078125 0 1.890625 0.4375q0.8125 0.421875 1.328125 1.25q0.53125 0.8125 0.828125 1.984375q0.3125 1.15625 0.3125 3.140625q0 2.359375 -0.484375 3.8125q-0.484375 1.4375 -1.453125 2.234375q-0.953125 0.78125 -2.421875 0.78125q-1.921875 0 -3.03125 -1.390625q-1.3125 -1.671875 -1.3125 -5.4375zm1.671875 0q0 3.296875 0.765625 4.390625q0.78125 1.078125 1.90625 1.078125q1.140625 0 1.90625 -1.09375q0.765625 -1.09375 0.765625 -4.375q0 -3.296875 -0.765625 -4.375q-0.765625 -1.078125 -1.921875 -1.078125q-1.125 0 -1.796875 0.953125q-0.859375 1.21875 -0.859375 4.5zm9.578857 6.59375l0 -1.875l1.875 0l0 1.875q0 1.03125 -0.375 1.65625q-0.359375 0.640625 -1.15625 0.984375l-0.453125 -0.703125q0.515625 -0.21875 0.765625 -0.671875q0.25 -0.4375 0.28125 -1.265625l-0.9375 0zm5.2145386 0l0 -1.875l1.875 0l0 1.875l-1.875 0zm5.183319 0l0 -1.875l1.875 0l0 1.875l-1.875 0zm5.1832886 0l0 -1.875l1.875 0l0 1.875l-1.875 0zm5.152069 0l0 -1.875l1.875 0l0 1.875q0 1.03125 -0.375 1.65625q-0.359375 0.640625 -1.15625 0.984375l-0.453125 -0.703125q0.515625 -0.21875 0.765625 -0.671875q0.25 -0.4375 0.28125 -1.265625l-0.9375 0zm4.3082886 -6.59375q0 -2.359375 0.484375 -3.796875q0.484375 -1.453125 1.4375 -2.234375q0.96875 -0.78125 2.421875 -0.78125q1.078125 0 1.890625 0.4375q0.8125 0.421875 1.328125 1.25q0.53125 0.8125 0.828125 1.984375q0.3125 1.15625 0.3125 3.140625q0 2.359375 -0.484375 3.8125q-0.484375 1.4375 -1.453125 2.234375q-0.953125 0.78125 -2.421875 0.78125q-1.921875 0 -3.03125 -1.390625q-1.3125 -1.671875 -1.3125 -5.4375zm1.671875 0q0 3.296875 0.765625 4.390625q0.78125 1.078125 1.90625 1.078125q1.140625 0 1.90625 -1.09375q0.765625 -1.09375 0.765625 -4.375q0 -3.296875 -0.765625 -4.375q-0.765625 -1.078125 -1.921875 -1.078125q-1.125 0 -1.796875 0.953125q-0.859375 1.21875 -0.859375 4.5z" fill-rule="nonzero"/><path fill="#ffffff" d="m399.66934 574.80316l0 0c0 -19.673523 26.869965 -35.62207 60.015747 -35.62207l0 0c33.145782 0 60.015717 15.948547 60.015717 35.62207l0 0c0 19.673523 -26.869934 35.62201 -60.015717 35.62201l0 0c-33.145782 0 -60.015747 -15.948486 -60.015747 -35.62201z" fill-rule="evenodd"/><path stroke="#000000" stroke-width="1.0" stroke-linejoin="round" stroke-linecap="butt" d="m399.66934 574.80316l0 0c0 -19.673523 26.869965 -35.62207 60.015747 -35.62207l0 0c33.145782 0 60.015717 15.948547 60.015717 35.62207l0 0c0 19.673523 -26.869934 35.62201 -60.015717 35.62201l0 0c-33.145782 0 -60.015747 -15.948486 -60.015747 -35.62201z" fill-rule="evenodd"/><path fill="#000000" d="m435.52472 581.72314l-1.640625 0l0 -10.453125q-0.59375 0.5625 -1.5625 1.140625q-0.953125 0.5625 -1.71875 0.84375l0 -1.59375q1.375 -0.640625 2.40625 -1.5625q1.03125 -0.921875 1.453125 -1.78125l1.0625 0l0 13.40625zm5.078827 0l0 -1.875l1.875 0l0 1.875q0 1.03125 -0.375 1.65625q-0.359375 0.640625 -1.15625 0.984375l-0.453125 -0.703125q0.515625 -0.21875 0.765625 -0.671875q0.25 -0.4375 0.28125 -1.265625l-0.9375 0zm4.308319 -6.59375q0 -2.359375 0.484375 -3.796875q0.484375 -1.453125 1.4375 -2.234375q0.96875 -0.78125 2.421875 -0.78125q1.078125 0 1.890625 0.4375q0.8125 0.421875 1.328125 1.25q0.53125 0.8125 0.828125 1.984375q0.3125 1.15625 0.3125 3.140625q0 2.359375 -0.484375 3.8125q-0.484375 1.4375 -1.453125 2.234375q-0.953125 0.78125 -2.421875 0.78125q-1.921875 0 -3.03125 -1.390625q-1.3125 -1.671875 -1.3125 -5.4375zm1.671875 0q0 3.296875 0.765625 4.390625q0.78125 1.078125 1.90625 1.078125q1.140625 0 1.90625 -1.09375q0.765625 -1.09375 0.765625 -4.375q0 -3.296875 -0.765625 -4.375q-0.765625 -1.078125 -1.921875 -1.078125q-1.125 0 -1.796875 0.953125q-0.859375 1.21875 -0.859375 4.5zm9.578827 6.59375l0 -1.875l1.875 0l0 1.875q0 1.03125 -0.375 1.65625q-0.359375 0.640625 -1.15625 0.984375l-0.453125 -0.703125q0.515625 -0.21875 0.765625 -0.671875q0.25 -0.4375 0.28125 -1.265625l-0.9375 0zm5.214569 0l0 -1.875l1.875 0l0 1.875l-1.875 0zm5.1832886 0l0 -1.875l1.875 0l0 1.875l-1.875 0zm5.183319 0l0 -1.875l1.875 0l0 1.875l-1.875 0zm5.1520386 0l0 -1.875l1.875 0l0 1.875q0 1.03125 -0.375 1.65625q-0.359375 0.640625 -1.15625 0.984375l-0.453125 -0.703125q0.515625 -0.21875 0.765625 -0.671875q0.25 -0.4375 0.28125 -1.265625l-0.9375 0zm4.308319 -6.59375q0 -2.359375 0.484375 -3.796875q0.484375 -1.453125 1.4375 -2.234375q0.96875 -0.78125 2.421875 -0.78125q1.078125 0 1.890625 0.4375q0.8125 0.421875 1.328125 1.25q0.53125 0.8125 0.828125 1.984375q0.3125 1.15625 0.3125 3.140625q0 2.359375 -0.484375 3.8125q-0.484375 1.4375 -1.453125 2.234375q-0.953125 0.78125 -2.421875 0.78125q-1.921875 0 -3.03125 -1.390625q-1.3125 -1.671875 -1.3125 -5.4375zm1.671875 0q0 3.296875 0.765625 4.390625q0.78125 1.078125 1.90625 1.078125q1.140625 0 1.90625 -1.09375q0.765625 -1.09375 0.765625 -4.375q0 -3.296875 -0.765625 -4.375q-0.765625 -1.078125 -1.921875 -1.078125q-1.125 0 -1.796875 0.953125q-0.859375 1.21875 -0.859375 4.5z" fill-rule="nonzero"/><path fill="#ffffff" d="m694.5273 574.80316l0 0c0 -19.673523 26.869995 -35.62207 60.015747 -35.62207l0 0c33.145813 0 60.015747 15.948547 60.015747 35.62207l0 0c0 19.673523 -26.869934 35.62201 -60.015747 35.62201l0 0c-33.145752 0 -60.015747 -15.948486 -60.015747 -35.62201z" fill-rule="evenodd"/><path stroke="#000000" stroke-width="1.0" stroke-linejoin="round" stroke-linecap="butt" d="m694.5273 574.80316l0 0c0 -19.673523 26.869995 -35.62207 60.015747 -35.62207l0 0c33.145813 0 60.015747 15.948547 60.015747 35.62207l0 0c0 19.673523 -26.869934 35.62201 -60.015747 35.62201l0 0c-33.145752 0 -60.015747 -15.948486 -60.015747 -35.62201z" fill-rule="evenodd"/><path fill="#000000" d="m730.3827 581.72314l-1.640625 0l0 -10.453125q-0.59375 0.5625 -1.5625 1.140625q-0.953125 0.5625 -1.71875 0.84375l0 -1.59375q1.375 -0.640625 2.40625 -1.5625q1.03125 -0.921875 1.453125 -1.78125l1.0625 0l0 13.40625zm5.0788574 0l0 -1.875l1.875 0l0 1.875q0 1.03125 -0.375 1.65625q-0.359375 0.640625 -1.15625 0.984375l-0.453125 -0.703125q0.515625 -0.21875 0.765625 -0.671875q0.25 -0.4375 0.28125 -1.265625l-0.9375 0zm10.480164 0l-1.640625 0l0 -10.453125q-0.59375 0.5625 -1.5625 1.140625q-0.953125 0.5625 -1.71875 0.84375l0 -1.59375q1.375 -0.640625 2.40625 -1.5625q1.03125 -0.921875 1.453125 -1.78125l1.0625 0l0 13.40625zm5.0788574 0l0 -1.875l1.875 0l0 1.875q0 1.03125 -0.375 1.65625q-0.359375 0.640625 -1.15625 0.984375l-0.453125 -0.703125q0.515625 -0.21875 0.765625 -0.671875q0.25 -0.4375 0.28125 -1.265625l-0.9375 0zm5.2145386 0l0 -1.875l1.875 0l0 1.875l-1.875 0zm5.1832886 0l0 -1.875l1.875 0l0 1.875l-1.875 0zm5.1833496 0l0 -1.875l1.875 0l0 1.875l-1.875 0zm5.1520386 0l0 -1.875l1.875 0l0 1.875q0 1.03125 -0.375 1.65625q-0.359375 0.640625 -1.15625 0.984375l-0.453125 -0.703125q0.515625 -0.21875 0.765625 -0.671875q0.25 -0.4375 0.28125 -1.265625l-0.9375 0zm4.3082886 -6.59375q0 -2.359375 0.484375 -3.796875q0.484375 -1.453125 1.4375 -2.234375q0.96875 -0.78125 2.421875 -0.78125q1.078125 0 1.890625 0.4375q0.8125 0.421875 1.328125 1.25q0.53125 0.8125 0.828125 1.984375q0.3125 1.15625 0.3125 3.140625q0 2.359375 -0.484375 3.8125q-0.484375 1.4375 -1.453125 2.234375q-0.953125 0.78125 -2.421875 0.78125q-1.921875 0 -3.03125 -1.390625q-1.3125 -1.671875 -1.3125 -5.4375zm1.671875 0q0 3.296875 0.765625 4.390625q0.78125 1.078125 1.90625 1.078125q1.140625 0 1.90625 -1.09375q0.765625 -1.09375 0.765625 -4.375q0 -3.296875 -0.765625 -4.375q-0.765625 -1.078125 -1.921875 -1.078125q-1.125 0 -1.796875 0.953125q-0.859375 1.21875 -0.859375 4.5z" fill-rule="nonzero"/><path fill="#ffffff" d="m826.93787 574.80316l0 0c0 -19.673523 26.869995 -35.62207 60.015747 -35.62207l0 0c33.145813 0 60.015747 15.948547 60.015747 35.62207l0 0c0 19.673523 -26.869934 35.62201 -60.015747 35.62201l0 0c-33.145752 0 -60.015747 -15.948486 -60.015747 -35.62201z" fill-rule="evenodd"/><path stroke="#000000" stroke-width="1.0" stroke-linejoin="round" stroke-linecap="butt" d="m826.93787 574.80316l0 0c0 -19.673523 26.869995 -35.62207 60.015747 -35.62207l0 0c33.145813 0 60.015747 15.948547 60.015747 35.62207l0 0c0 19.673523 -26.869934 35.62201 -60.015747 35.62201l0 0c-33.145752 0 -60.015747 -15.948486 -60.015747 -35.62201z" fill-rule="evenodd"/><path fill="#000000" d="m862.7933 581.72314l-1.640625 0l0 -10.453125q-0.59375 0.5625 -1.5625 1.140625q-0.953125 0.5625 -1.71875 0.84375l0 -1.59375q1.375 -0.640625 2.40625 -1.5625q1.03125 -0.921875 1.453125 -1.78125l1.0625 0l0 13.40625zm5.0788574 0l0 -1.875l1.875 0l0 1.875q0 1.03125 -0.375 1.65625q-0.359375 0.640625 -1.15625 0.984375l-0.453125 -0.703125q0.515625 -0.21875 0.765625 -0.671875q0.25 -0.4375 0.28125 -1.265625l-0.9375 0zm10.480164 0l-1.640625 0l0 -10.453125q-0.59375 0.5625 -1.5625 1.140625q-0.953125 0.5625 -1.71875 0.84375l0 -1.59375q1.375 -0.640625 2.40625 -1.5625q1.03125 -0.921875 1.453125 -1.78125l1.0625 0l0 13.40625zm5.0788574 0l0 -1.875l1.875 0l0 1.875q0 1.03125 -0.375 1.65625q-0.359375 0.640625 -1.15625 0.984375l-0.453125 -0.703125q0.515625 -0.21875 0.765625 -0.671875q0.25 -0.4375 0.28125 -1.265625l-0.9375 0zm5.2145386 0l0 -1.875l1.875 0l0 1.875l-1.875 0zm5.1832886 0l0 -1.875l1.875 0l0 1.875l-1.875 0zm5.1832886 0l0 -1.875l1.875 0l0 1.875l-1.875 0zm5.1520996 0l0 -1.875l1.875 0l0 1.875q0 1.03125 -0.375 1.65625q-0.359375 0.640625 -1.15625 0.984375l-0.453125 -0.703125q0.515625 -0.21875 0.765625 -0.671875q0.25 -0.4375 0.28125 -1.265625l-0.9375 0zm10.480164 0l-1.640625 0l0 -10.453125q-0.59375 0.5625 -1.5625 1.140625q-0.953125 0.5625 -1.71875 0.84375l0 -1.59375q1.375 -0.640625 2.40625 -1.5625q1.03125 -0.921875 1.453125 -1.78125l1.0625 0l0 13.40625z" fill-rule="nonzero"/><path fill="#000000" fill-opacity="0.0" d="m547.4533 173.50618l-27.747986 49.606293" fill-rule="evenodd"/><path stroke="#000000" stroke-width="1.0" stroke-linejoin="round" stroke-linecap="butt" d="m547.4533 173.50616l-24.818909 44.369858" fill-rule="evenodd"/><path fill="#000000" stroke="#000000" stroke-width="1.0" stroke-linecap="butt" d="m521.1929 217.06967l-0.7739258 4.7669373l3.6569824 -3.154251z" fill-rule="evenodd"/><path fill="#000000" fill-opacity="0.0" d="m641.5709 173.50618l10.551147 49.606293" fill-rule="evenodd"/><path stroke="#000000" stroke-width="1.0" stroke-linejoin="round" stroke-linecap="butt" d="m641.5709 173.50616l9.3029175 43.73758" fill-rule="evenodd"/><path fill="#000000" stroke="#000000" stroke-width="1.0" stroke-linecap="butt" d="m649.25824 217.58739l2.5596924 4.095169l0.6715088 -4.78244z" fill-rule="evenodd"/><path fill="#000000" fill-opacity="0.0" d="m477.26224 283.91943l-32.06299 54.771667" fill-rule="evenodd"/><path stroke="#000000" stroke-width="1.0" stroke-linejoin="round" stroke-linecap="butt" d="m477.2622 283.91943l-29.0318 49.593628" fill-rule="evenodd"/><path fill="#000000" stroke="#000000" stroke-width="1.0" stroke-linecap="butt" d="m446.80496 332.67862l-0.8671875 4.7508545l3.7180786 -3.0819702z" fill-rule="evenodd"/><path fill="#000000" fill-opacity="0.0" d="m562.1373 283.91943l7.2755737 56.81891" fill-rule="evenodd"/><path stroke="#000000" stroke-width="1.0" stroke-linejoin="round" stroke-linecap="butt" d="m562.1373 283.91943l6.513489 50.867493" fill-rule="evenodd"/><path fill="#000000" stroke="#000000" stroke-width="1.0" stroke-linecap="butt" d="m567.01245 334.9967l2.2147827 4.291565l1.0619507 -4.7111206z" fill-rule="evenodd"/><path fill="#000000" fill-opacity="0.0" d="m609.6728 283.91943l-5.165344 58.86615" fill-rule="evenodd"/><path stroke="#000000" stroke-width="1.0" stroke-linejoin="round" stroke-linecap="butt" d="m609.6728 283.91943l-4.640869 52.8891" fill-rule="evenodd"/><path fill="#000000" stroke="#000000" stroke-width="1.0" stroke-linecap="butt" d="m603.3865 336.66415l1.2487183 4.6651306l2.0421143 -4.3763733z" fill-rule="evenodd"/><path fill="#000000" fill-opacity="0.0" d="m694.5283 283.9288l27.968506 60.881897" fill-rule="evenodd"/><path stroke="#000000" stroke-width="1.0" stroke-linejoin="round" stroke-linecap="butt" d="m694.5283 283.9288l25.463806 55.429688" fill-rule="evenodd"/><path fill="#000000" stroke="#000000" stroke-width="1.0" stroke-linecap="butt" d="m718.4912 340.048l3.3953247 3.4342651l-0.39349365 -4.8132935z" fill-rule="evenodd"/><path fill="#000000" fill-opacity="0.0" d="m378.266 363.1502l95.18109 0l0 142.55118l-95.18109 0z" fill-rule="evenodd"/><path fill="#000000" d="m424.0598 397.7502l0 -3.65625l3.671875 0l0 3.65625l-3.671875 0z" fill-rule="nonzero"/><path fill="#000000" d="m424.0598 429.7502l0 -3.65625l3.671875 0l0 3.65625l-3.671875 0z" fill-rule="nonzero"/><path fill="#000000" d="m424.0598 461.7502l0 -3.65625l3.671875 0l0 3.65625l-3.671875 0z" fill-rule="nonzero"/><path fill="#000000" fill-opacity="0.0" d="m680.4007 363.1502l95.18109 0l0 142.55118l-95.18109 0z" fill-rule="evenodd"/><path fill="#000000" d="m726.1945 397.7502l0 -3.65625l3.671875 0l0 3.65625l-3.671875 0z" fill-rule="nonzero"/><path fill="#000000" d="m726.1945 429.7502l0 -3.65625l3.671875 0l0 3.65625l-3.671875 0z" fill-rule="nonzero"/><path fill="#000000" d="m726.1945 461.7502l0 -3.65625l3.671875 0l0 3.65625l-3.671875 0z" fill-rule="nonzero"/><path fill="#000000" fill-opacity="0.0" d="m532.0799 539.1811l120.031494 0l0 60.881897l-120.031494 0z" fill-rule="evenodd"/><path fill="#000000" d="m561.1907 573.78107l0 -2.671875l2.671875 0l0 2.671875l-2.671875 0zm29.62384 0l0 -2.671875l2.671875 0l0 2.671875l-2.671875 0zm29.62384 0l0 -2.671875l2.671875 0l0 2.671875l-2.671875 0z" fill-rule="nonzero"/><path fill="#000000" fill-opacity="0.0" d="m254.84589 600.0661c-17.716599 0 -32.078735 -2.3936157 -32.078735 -5.3462524l0 -220.77206c0 -2.9526672 -14.362152 -5.3462524 -32.07875 -5.3462524l0 0c17.716599 0 32.07875 -2.3935852 32.07875 -5.3462524l0 -220.77206l0 0c0 -2.952652 14.362137 -5.3462524 32.078735 -5.3462524z" fill-rule="evenodd"/><path fill="#000000" fill-opacity="0.0" d="m254.84589 600.0661c-17.716599 0 -32.078735 -2.3936157 -32.078735 -5.3462524l0 -220.77206c0 -2.9526672 -14.362152 -5.3462524 -32.07875 -5.3462524l0 0c17.716599 0 32.07875 -2.3935852 32.07875 -5.3462524l0 -220.77206l0 0c0 -2.952652 14.362137 -5.3462524 32.078735 -5.3462524" fill-rule="evenodd"/><path stroke="#000000" stroke-width="1.0" stroke-linejoin="round" stroke-linecap="butt" d="m254.84589 600.0661c-17.716599 0 -32.078735 -2.3936157 -32.078735 -5.3462524l0 -220.77206c0 -2.9526672 -14.362152 -5.3462524 -32.07875 -5.3462524l0 0c17.716599 0 32.07875 -2.3935852 32.07875 -5.3462524l0 -220.77206l0 0c0 -2.952652 14.362137 -5.3462524 32.078735 -5.3462524" fill-rule="evenodd"/><path fill="#000000" fill-opacity="0.0" d="m40.27863 342.80966l142.07875 0l0 71.24411l-142.07875 0z" fill-rule="evenodd"/><path fill="#000000" fill-opacity="0.0" d="m14.086615 332.97574l194.51968 0l0 71.24408l-194.51968 0z" fill-rule="evenodd"/><path fill="#000000" d="m69.849846 357.48697l3.0 -0.296875q0.28125 1.515625 1.109375 2.234375q0.828125 0.703125 2.234375 0.703125q1.484375 0 2.234375 -0.625q0.765625 -0.640625 0.765625 -1.484375q0 -0.546875 -0.328125 -0.921875q-0.3125 -0.375 -1.109375 -0.65625q-0.53125 -0.1875 -2.46875 -0.671875q-2.46875 -0.609375 -3.46875 -1.515625q-1.40625 -1.25 -1.40625 -3.0625q0 -1.171875 0.65625 -2.1875q0.65625 -1.015625 1.90625 -1.546875q1.25 -0.53125 3.0 -0.53125q2.875 0 4.328125 1.265625q1.453125 1.265625 1.53125 3.359375l-3.078125 0.140625q-0.203125 -1.171875 -0.859375 -1.6875q-0.640625 -0.515625 -1.953125 -0.515625q-1.34375 0 -2.09375 0.546875q-0.5 0.359375 -0.5 0.953125q0 0.53125 0.46875 0.921875q0.578125 0.484375 2.828125 1.015625q2.25 0.53125 3.328125 1.109375q1.078125 0.5625 1.6875 1.546875q0.609375 0.984375 0.609375 2.421875q0 1.3125 -0.734375 2.46875q-0.734375 1.140625 -2.0625 1.703125q-1.328125 0.546875 -3.3125 0.546875q-2.90625 0 -4.453125 -1.328125q-1.546875 -1.34375 -1.859375 -3.90625z" fill-rule="nonzero"/><path fill="#000000" d="m84.32554 362.08072l0 -1.796875l1.953125 0l0 1.796875l-1.953125 0zm0 8.375l0 -7.375l1.953125 0l0 7.375l-1.953125 0z" fill-rule="nonzero"/><path fill="#000000" d="m94.732796 347.1901l5.625 0q1.90625 0 2.90625 0.296875q1.34375 0.390625 2.296875 1.40625q0.96875 1.0 1.46875 2.46875q0.5 1.453125 0.5 3.609375q0 1.875 -0.46875 3.25q-0.578125 1.65625 -1.640625 2.6875q-0.796875 0.78125 -2.15625 1.21875q-1.03125 0.328125 -2.734375 0.328125l-5.796875 0l0 -15.265625zm3.078125 2.578125l0 10.109375l2.296875 0q1.296875 0 1.875 -0.140625q0.75 -0.1875 1.234375 -0.625q0.5 -0.453125 0.8125 -1.484375q0.3125 -1.03125 0.3125 -2.796875q0 -1.765625 -0.3125 -2.703125q-0.3125 -0.953125 -0.875 -1.484375q-0.5625 -0.53125 -1.421875 -0.71875q-0.65625 -0.15625 -2.53125 -0.15625l-1.390625 0zm18.714996 9.171875l2.90625 0.484375q-0.546875 1.609375 -1.765625 2.453125q-1.21875 0.828125 -3.03125 0.828125q-2.890625 0 -4.28125 -1.890625q-1.09375 -1.5 -1.09375 -3.8125q0 -2.75 1.4375 -4.296875q1.4375 -1.5625 3.640625 -1.5625q2.46875 0 3.890625 1.640625q1.421875 1.625 1.359375 4.984375l-7.328125 0q0.03125 1.296875 0.703125 2.03125q0.6875 0.71875 1.703125 0.71875q0.6875 0 1.15625 -0.375q0.46875 -0.375 0.703125 -1.203125zm0.171875 -2.96875q-0.03125 -1.265625 -0.65625 -1.921875q-0.625 -0.671875 -1.53125 -0.671875q-0.953125 0 -1.578125 0.703125q-0.625 0.703125 -0.609375 1.890625l4.375 0zm5.2054443 -4.578125l2.71875 0l0 1.625q0.53125 -0.828125 1.4375 -1.34375q0.90625 -0.53125 2.0156174 -0.53125q1.921875 0 3.265625 1.515625q1.34375 1.5 1.34375 4.203125q0 2.765625 -1.359375 4.3125q-1.34375 1.53125 -3.265625 1.53125q-0.9218674 0 -1.6718674 -0.359375q-0.734375 -0.375 -1.5625 -1.25l0 5.5625l-2.921875 0l0 -15.265625zm2.890625 5.34375q0 1.859375 0.734375 2.75q0.75 0.890625 1.8125 0.890625q1.0156174 0 1.6874924 -0.8125q0.6875 -0.8125 0.6875 -2.6875q0 -1.734375 -0.703125 -2.578125q-0.703125 -0.84375 -1.7343674 -0.84375q-1.0625 0 -1.78125 0.828125q-0.703125 0.828125 -0.703125 2.453125zm15.293694 -5.34375l0 2.328125l-2.0 0l0 4.46875q0 1.34375 0.046875 1.578125q0.0625 0.21875 0.265625 0.375q0.203125 0.140625 0.5 0.140625q0.40625 0 1.171875 -0.28125l0.25 2.265625q-1.015625 0.4375 -2.3125 0.4375q-0.796875 0 -1.4375 -0.265625q-0.625 -0.265625 -0.921875 -0.6875q-0.296875 -0.421875 -0.40625 -1.140625q-0.09375 -0.515625 -0.09375 -2.0625l0 -4.828125l-1.34375 0l0 -2.328125l1.34375 0l0 -2.1875l2.9375 -1.71875l0 3.90625l2.0 0zm4.9461823 -4.203125l0 5.609375q1.40625 -1.65625 3.375 -1.65625q1.015625 0 1.828125 0.375q0.8125 0.375 1.21875 0.96875q0.40625 0.578125 0.5625 1.28125q0.15625 0.703125 0.15625 2.203125l0 6.484375l-2.921875 0l0 -5.84375q0 -1.734375 -0.171875 -2.203125q-0.171875 -0.46875 -0.59375 -0.75q-0.421875 -0.28125 -1.046875 -0.28125q-0.734375 0 -1.3125 0.359375q-0.5625 0.359375 -0.828125 1.078125q-0.265625 0.703125 -0.265625 2.09375l0 5.546875l-2.9375 0l0 -15.265625l2.9375 0z" fill-rule="nonzero"/><path fill="#000000" fill-opacity="0.0" d="m356.9123 505.70078l-29.637787 33.480316" fill-rule="evenodd"/><path stroke="#000000" stroke-width="1.0" stroke-linejoin="round" stroke-linecap="butt" d="m356.91232 505.70078l-25.660828 28.987701" fill-rule="evenodd"/><path fill="#000000" stroke="#000000" stroke-width="1.0" stroke-linecap="butt" d="m330.01474 533.5937l-1.7712402 4.492798l4.244751 -2.3031616z" fill-rule="evenodd"/><path fill="#000000" fill-opacity="0.0" d="m425.85654 505.7014l33.826782 33.480316" fill-rule="evenodd"/><path stroke="#000000" stroke-width="1.0" stroke-linejoin="round" stroke-linecap="butt" d="m425.85654 505.70142l29.562347 29.259521" fill-rule="evenodd"/><path fill="#000000" stroke="#000000" stroke-width="1.0" stroke-linecap="butt" d="m454.25696 536.13495l4.387329 2.0183716l-2.0634766 -4.366272z" fill-rule="evenodd"/><path fill="#000000" fill-opacity="0.0" d="m783.20447 513.8583l-28.661438 25.322815" fill-rule="evenodd"/><path stroke="#000000" stroke-width="1.0" stroke-linejoin="round" stroke-linecap="butt" d="m783.20447 513.8583l-24.16504 21.350159" fill-rule="evenodd"/><path fill="#000000" stroke="#000000" stroke-width="1.0" stroke-linecap="butt" d="m757.94586 533.97064l-2.307251 4.2424927l4.494507 -1.7669067z" fill-rule="evenodd"/><path fill="#000000" fill-opacity="0.0" d="m861.88275 507.74802l25.070862 31.433075" fill-rule="evenodd"/><path stroke="#000000" stroke-width="1.0" stroke-linejoin="round" stroke-linecap="butt" d="m861.8828 507.74802l21.329529 26.742401" fill-rule="evenodd"/><path fill="#000000" stroke="#000000" stroke-width="1.0" stroke-linecap="butt" d="m881.9211 535.5203l4.1210327 2.5178833l-1.5384521 -4.577759z" fill-rule="evenodd"/></g></svg>